<?xml version="1.0" encoding="UTF-8"?>
<svg width="640px" height="640px" viewBox="0 0 640 640" version="1.1" xmlns="http://www.w3.org/2000/svg" xmlns:xlink="http://www.w3.org/1999/xlink">
    <title>Artboard</title>
    <g id="Artboard" stroke="none" stroke-width="1" fill="none" fill-rule="evenodd">
        <g id="code-solid" transform="translate(0.000000, 64.000000)" fill="#347EC0" fill-rule="nonzero">
            <path d="M392.775,1.25412601 C375.775,-3.64587399 358.075,6.25412601 353.175,23.254126 L225.175,471.254126 C220.275,488.254126 230.175,505.954126 247.175,510.854126 C264.175,515.754126 281.875,505.854126 286.775,488.854126 L414.775,40.854126 C419.675,23.854126 409.775,6.15412601 392.775,1.25412601 Z M473.375,121.354126 C460.875,133.854126 460.875,154.154126 473.375,166.654126 L562.675,256.054126 L473.275,345.454126 C460.775,357.954126 460.775,378.254126 473.275,390.754126 C485.775,403.254126 506.075,403.254126 518.575,390.754126 L630.575,278.754126 C643.075,266.254126 643.075,245.954126 630.575,233.454126 L518.575,121.454126 C506.075,108.954126 485.775,108.954126 473.275,121.454126 L473.375,121.354126 Z M166.675,121.354126 C154.175,108.854126 133.875,108.854126 121.375,121.354126 L9.375,233.354126 C-3.125,245.854126 -3.125,266.154126 9.375,278.654126 L121.375,390.654126 C133.875,403.154126 154.175,403.154126 166.675,390.654126 C179.175,378.154126 179.175,357.854126 166.675,345.354126 L77.275,256.054126 L166.675,166.654126 C179.175,154.154126 179.175,133.854126 166.675,121.354126 Z" id="Shape"></path>
        </g>
    </g>
</svg>